<?xml version="1.0" encoding="UTF-8" standalone="no"?>
<svg width="209px" height="36px" viewBox="0 0 209 36" version="1.1" xmlns="http://www.w3.org/2000/svg" xmlns:xlink="http://www.w3.org/1999/xlink" xmlns:sketch="http://www.bohemiancoding.com/sketch/ns">
    <!-- Generator: Sketch 3.1 (8751) - http://www.bohemiancoding.com/sketch -->
    <title>Vector 1</title>
    <desc>Created with Sketch.</desc>
    <defs></defs>
    <g id="Page-1" stroke="none" stroke-width="1" fill="none" fill-rule="evenodd" sketch:type="MSPage">
        <g id="Artboard-1" sketch:type="MSArtboardGroup" transform="translate(-47.000000, -18.000000)">
            <g id="Imported-EPS" sketch:type="MSLayerGroup" transform="translate(-30.000000, -188.000000)"></g>
            <path d="M53.744,53 L53.744,23.624 C53.744,21.512 51.92,20.12 50.24,20.12 L47.264,20.12 L47.264,48.632 C47.264,51.512 49.328,53 51.248,53 L53.744,53 Z M82.976,53 L82.976,37.928 C82.976,30.584 77.936,26.504 71.84,26.504 C63.776,26.504 60.176,32.12 60.176,37.592 L60.176,48.776 C60.176,51.176 61.952,53 64.688,53 L66.608,53 L66.608,38.024 C66.608,34.328 68.528,32.216 71.312,32.216 C74.624,32.216 76.544,34.136 76.544,38.504 L76.544,48.776 C76.544,51.176 78.368,53 81.248,53 L82.976,53 Z M107.84,44.84 C107.84,40.712 104.96,38.36 99.584,37.496 C95.168,36.776 94.4,36.248 94.4,34.952 C94.4,33.272 95.648,32.072 99.584,32.072 C102.656,32.072 105.632,33.128 106.976,34.472 L107.216,34.472 L107.216,32.024 C107.216,29.528 104.816,26.504 98.96,26.504 C92.336,26.504 87.968,30.632 87.968,35.48 C87.968,39.416 90.608,41.576 96.08,42.344 C100.544,42.968 101.456,43.688 101.456,45.176 C101.456,47.096 99.92,48.008 96.752,48.008 C93.68,48.008 90.368,46.856 88.976,45.56 L88.736,45.56 L88.736,48.488 C88.736,51.128 92.288,53.576 97.04,53.576 C104,53.576 107.84,50.312 107.84,44.84 L107.84,44.84 Z M113.072,28.136 L113.072,43.688 C113.072,49.736 116.24,53.288 122.768,53.288 C126.512,53.288 128.432,51.608 128.432,48.968 L128.432,46.664 L128.192,46.664 C127.184,47.288 125.6,47.576 123.536,47.576 C120.944,47.576 119.456,46.28 119.456,42.92 L119.456,32.792 L124.592,32.792 C127.232,32.792 128.432,31.064 128.432,29.72 L128.432,27.08 L119.456,27.08 L119.456,21.224 L117.968,21.224 C116.96,21.224 115.808,21.992 114.944,23 C113.552,24.632 113.072,25.592 113.072,28.136 L113.072,28.136 Z M152.576,44.168 L152.576,38.216 C152.576,29.288 147.392,26.6 141.632,26.6 C134.816,26.6 132.224,30.056 132.224,32.936 L132.224,35 L132.464,35 C133.424,33.8 136.016,32.024 140.672,32.024 C144.512,32.024 146.24,33.128 146.24,36.776 L146.24,37.112 L143.984,37.112 C134.48,37.112 131.12,40.616 131.12,45.224 C131.12,49.976 135.344,53.432 141.488,53.432 L142.784,53.432 C148.544,53.432 152.576,49.64 152.576,44.168 L152.576,44.168 Z M146.288,44.216 C146.288,46.856 144.944,48.2 142.16,48.2 C139.328,48.2 137.696,47 137.696,44.984 C137.696,42.872 139.088,41.72 143.984,41.72 L146.288,41.72 L146.288,44.216 Z M195.296,53 L195.296,37.448 C195.296,30.104 190.496,26.504 184.544,26.504 C181.424,26.504 178.592,28.136 177.104,30.536 C175.232,28.04 172.592,26.504 169.232,26.504 C161.408,26.504 157.712,31.208 157.712,38.264 L157.712,48.296 C157.712,51.272 159.728,53 162.368,53 L164.096,53 L164.096,37.736 C164.096,34.184 165.968,32.216 168.464,32.216 C171.296,32.216 173.264,34.04 173.264,38.312 L173.264,48.296 C173.264,51.368 175.136,53 177.968,53 L179.696,53 L179.696,37.592 C179.696,34.04 181.472,32.216 184.064,32.216 C186.896,32.216 188.816,34.04 188.816,38.312 L188.816,48.296 C188.816,51.368 190.208,53 193.712,53 L195.296,53 Z M200.336,40.52 C200.336,47.384 204.8,53.576 212.576,53.576 C220.928,53.576 225.392,47.384 225.392,39.608 C225.392,32.744 220.928,26.504 213.152,26.504 C204.8,26.504 200.336,32.744 200.336,40.52 L200.336,40.52 Z M218.72,40.52 C218.72,44.744 216.896,47.816 213.152,47.816 C208.88,47.816 207.008,44.744 207.008,39.608 C207.008,35.336 208.88,32.264 212.576,32.264 C216.8,32.264 218.72,35.336 218.72,40.52 L218.72,40.52 Z M255.584,39.512 C255.584,31.88 250.544,26.504 243.968,26.504 C240.464,26.504 238.256,28.568 236.96,30.44 L236.96,22.904 C236.96,19.88 235.232,18.44 232.736,18.44 L230.528,18.44 L230.528,40.376 C230.528,48.152 236.096,53.576 242.72,53.576 C250.592,53.576 255.584,47.288 255.584,39.512 L255.584,39.512 Z M248.912,40.616 C248.912,44.792 246.608,47.864 243.392,47.864 C239.552,47.864 237.008,45.416 237.008,39.464 C237.008,35.432 239.456,32.216 242.72,32.216 C246.656,32.216 248.912,34.328 248.912,40.616 L248.912,40.616 Z" id="Instamob" fill="#000000" sketch:type="MSShapeGroup"></path>
        </g>
    </g>
</svg>